<?xml version="1.0" standalone="no"?>
<!DOCTYPE svg PUBLIC "-//W3C//DTD SVG 20010904//EN"
 "http://www.w3.org/TR/2001/REC-SVG-20010904/DTD/svg10.dtd">
<svg version="1.0" xmlns="http://www.w3.org/2000/svg"
 width="500.000000pt" height="500.000000pt" viewBox="0 0 500.000000 500.000000"
 preserveAspectRatio="xMidYMid meet">
<metadata>
Created by potrace 1.14, written by Peter Selinger 2001-2017
</metadata>
<g transform="translate(0.000000,500.000000) scale(0.100000,-0.100000)"
fill="#000000" stroke="none">
<path d="M3546 3450 c-266 -34 -470 -130 -627 -298 -175 -187 -258 -416 -259
-712 0 -341 121 -621 346 -800 191 -152 406 -220 693 -220 148 0 280 17 381
51 77 25 201 89 249 128 l35 29 -38 103 c-22 57 -56 150 -78 205 l-39 102 -83
-52 c-115 -72 -222 -106 -356 -113 -296 -14 -477 109 -545 372 -23 88 -20 301
4 398 26 100 53 150 117 217 93 98 209 140 385 140 160 0 299 -43 433 -135 21
-14 42 -23 46 -18 4 4 40 95 80 202 l74 194 -35 29 c-83 70 -232 134 -381 163
-100 19 -307 27 -402 15z"/>
<path d="M730 2440 l0 -990 260 0 260 0 0 365 0 365 106 0 c132 0 187 -13 228
-55 18 -19 100 -169 194 -354 l163 -321 285 0 c156 0 284 2 284 4 0 8 -303
572 -331 618 -34 52 -115 132 -154 150 -14 6 -25 14 -25 17 0 3 33 22 73 41
95 46 202 150 245 240 82 167 82 406 2 578 -42 91 -150 197 -250 245 -161 79
-242 87 -852 87 l-488 0 0 -990z m930 580 c87 -14 148 -47 185 -99 27 -39 30
-50 30 -124 0 -112 -26 -159 -109 -202 l-59 -30 -229 -3 -228 -3 0 235 0 236
173 0 c94 0 201 -5 237 -10z"/>
</g>
</svg>
